<svg xmlns="http://www.w3.org/2000/svg" xmlns:xlink="http://www.w3.org/1999/xlink" width="32" height="32" viewBox="0 0 32 32"><defs><path id="bocla" d="M1006 1349a11.01 11.01 0 0 1-7.78-18.78l3.53-3.53 15.56 15.55-3.53 3.54a10.93 10.93 0 0 1-7.78 3.22zm-4.25-19.49l-2.12 2.13a9.01 9.01 0 0 0 12.73 12.72l2.12-2.12zm-.7 13.44a7.01 7.01 0 0 1 0-9.9l1.41 1.41a5 5 0 0 0 0 7.08zm11.78-7.12l-1.42-1.42a1.99 1.99 0 0 0 0-2.82 2.05 2.05 0 0 0-2.83 0l-1.41-1.42a4.1 4.1 0 0 1 5.66 0 3.97 3.97 0 0 1 0 5.66zm6.13-2.92c0-4.96-4-9-8.97-9v-2c6.06 0 10.97 4.93 10.97 11zm6.04.04c0-7.69-6.26-13.95-13.95-13.95v-2c8.79 0 15.94 7.16 15.95 15.95z"/></defs><g><g transform="translate(-995 -1317)"><use fill="#ef4035" xlink:href="#bocla"/></g></g></svg>