<svg xmlns="http://www.w3.org/2000/svg" xmlns:xlink="http://www.w3.org/1999/xlink" width="26" height="32" viewBox="0 0 26 32"><defs><path id="r4qna" d="M1160.96 1175h-11.99v-2h11.99zm4.36 30h-20.69l-.3-.3a8.04 8.04 0 0 1-2.34-5.7 8 8 0 0 1 2.33-5.7l6.65-6.71v-9.6h2v10.42l-7.24 7.3a6 6 0 0 0-1.74 4.29c0 1.5.53 2.9 1.49 4h19a6.17 6.17 0 0 0-.26-8.3l-7.23-7.29V1177h2v9.59l6.64 6.7a8.09 8.09 0 0 1-.02 11.42zm-19.12-4.68a4.15 4.15 0 0 1 .95-4.2l7-7 1.4 1.41-6.99 7a2.18 2.18 0 0 0-.47 2.15z"/></defs><g><g transform="translate(-1142 -1173)"><use fill="#ef4035" xlink:href="#r4qna"/></g></g></svg>